# This file uses centimeters as units for non-parametric coordinates.

mtllib building.mtl
g default
v -4.000000 0.000000 2.500000
v -2.000000 0.000000 2.500000
v 0.000000 0.000000 2.500000
v 2.000000 0.000000 2.500000
v 4.000000 0.000000 2.500000
v 0.000000 1.500000 2.500000
v 2.000000 1.500000 2.500000
v -4.000000 3.000000 2.500000
v -2.000000 3.000000 2.500000
v 0.000000 3.000000 2.500000
v 2.000000 3.000000 2.500000
v 4.000000 3.000000 2.500000
v -4.000000 3.000000 -2.500000
v -2.000000 3.000000 -2.500000
v 0.000000 3.000000 -2.500000
v 2.000000 3.000000 -2.500000
v 4.000000 3.000000 -2.500000
v -4.000000 0.000000 -2.500000
v -2.000000 0.000000 -2.500000
v 0.000000 0.000000 -2.500000
v 2.000000 0.000000 -2.500000
v 4.000000 0.000000 -2.500000
v -4.000000 0.000000 4.998621
v -2.000000 0.000000 4.998621
v -2.000000 3.000000 4.998621
v -4.000000 3.000000 4.998621
v 0.000000 1.500000 2.500000
v 2.000000 1.500000 2.500000
v 2.000000 3.000000 2.500000
v 0.000000 3.000000 2.500000
v 1.000000 0.000000 2.500000
v 2.000000 0.750000 2.500000
v 0.000000 0.750000 2.500000
v 2.000000 0.750000 4.032112
v 2.000000 1.500000 4.032112
v 0.000000 1.500000 4.032112
v 0.000000 0.750000 4.032112
v 2.000000 1.500000 3.661450
v 2.000000 0.750000 3.661450
v 1.500000 1.500000 3.661450
v 1.500000 1.500000 4.032112
v 1.500000 0.750000 3.661450
v 1.500000 0.750000 4.032112
v 0.500000 1.500000 3.661450
v 0.000000 1.500000 3.661450
v 0.500000 1.500000 4.032112
v 0.000000 0.750000 3.661450
v 0.500000 0.750000 3.661450
v 0.500000 0.750000 4.032112
v 2.000000 0.000001 3.661450
v 2.000000 0.000001 4.032112
v 1.500000 0.000001 4.032112
v 1.500000 0.000001 3.661450
v 0.000000 0.000001 4.032112
v 0.500000 0.000001 4.032112
v 0.000000 0.000001 3.661450
v 0.500000 0.000001 3.661450
v 1.500000 1.686573 4.032112
v 2.000000 1.686573 4.032112
v 2.000000 1.686573 3.661450
v 1.500000 1.686573 3.661450
v 0.000000 1.686573 3.661450
v 0.000000 1.686573 4.032112
v 0.500000 1.686573 4.032112
v 0.500000 1.686573 3.661450
vt 0.694335 0.068498
vt 0.724646 0.068498
vt 0.754957 0.068498
vt 0.785268 0.068498
vt 0.815579 0.068498
vt 0.754957 0.129120
vt 0.441401 0.773872
vt 0.694335 0.189742
vt 0.724646 0.189742
vt 0.066312 0.943222
vt 0.441401 0.943222
vt 0.815579 0.189742
vt 0.694335 0.310987
vt 0.724646 0.310987
vt 0.754957 0.310987
vt 0.785268 0.310987
vt 0.815579 0.310987
vt 0.694335 0.432231
vt 0.724646 0.432231
vt 0.754957 0.432231
vt 0.785268 0.432231
vt 0.815579 0.432231
vt 0.936824 0.068498
vt 0.936824 0.189742
vt 0.573090 0.068498
vt 0.573090 0.189742
vt 0.694335 0.068498
vt 0.724646 0.068498
vt 0.724646 0.189742
vt 0.694335 0.189742
vt 0.066312 0.773872
vt 0.441401 0.773872
vt 0.441401 0.943222
vt 0.066312 0.943222
vt 0.785268 0.098809
vt 0.754957 0.098809
vt 0.785268 0.098809
vt 0.785268 0.129120
vt 0.754957 0.129120
vt 0.754957 0.098809
vt 0.441401 0.773872
vt 0.785268 0.098809
vt 0.347629 0.773872
vt 0.777690 0.129120
vt 0.357568 0.425592
vt 0.777690 0.098809
vt 0.160084 0.773872
vt 0.754957 0.129120
vt 0.762535 0.129120
vt 0.070910 0.425592
vt 0.762535 0.098809
vt 0.762535 0.098809
vt 0.785268 0.098809
vt 0.785268 0.098809
vt 0.777690 0.098809
vt 0.357568 0.425592
vt 0.762535 0.098809
vt 0.754957 0.098809
vt 0.070910 0.425592
vt 0.762535 0.098809
vt 0.347629 0.773872
vt 0.785268 0.129120
vt 0.441401 0.773872
vt 0.347629 0.773872
vt 0.066312 0.773872
vt 0.754957 0.129120
vt 0.762535 0.129120
vt 0.160084 0.773872
vt 0.762535 0.129120
vt 0.160084 0.773872
vt 0.762535 0.129120
vt 0.762535 0.129120
vt 0.762535 0.129120
vt 0.754957 0.129120
vt 0.066312 0.773872
vt 0.762535 0.129120
vt 0.166463 0.581850
vt 0.762535 0.129120
vt 0.754957 0.129120
vt 0.070910 0.581850
vt 0.754957 0.129120
vt 0.754957 0.129120
vt 0.754957 0.129120
vt 0.754957 0.129120
vt 0.066312 0.773872
vt 0.785268 0.129120
vt 0.785268 0.129120
vt 0.441401 0.773872
vt 0.785268 0.129120
vt 0.785268 0.129120
vt 0.785268 0.129120
vt 0.777690 0.129120
vt 0.785268 0.129120
vt 0.453120 0.581850
vt 0.785268 0.129120
vt 0.357568 0.581850
vt 0.777690 0.129120
vt 0.347629 0.773872
vt 0.762535 0.098809
vt 0.166463 0.425592
vt 0.762535 0.098809
vt 0.166463 0.425592
vt 0.754957 0.098809
vt 0.754957 0.098809
vt 0.754957 0.098809
vt 0.754957 0.098809
vt 0.754957 0.098809
vt 0.166463 0.425592
vt 0.762535 0.098809
vt 0.762535 0.098809
vt 0.754957 0.098809
vt 0.070910 0.425592
vt 0.754957 0.098809
vt 0.777690 0.098809
vt 0.777690 0.098809
vt 0.777690 0.098809
vt 0.777690 0.098809
vt 0.785268 0.098809
vt 0.777690 0.098809
vt 0.357568 0.425592
vt 0.777690 0.098809
vt 0.453120 0.425592
vt 0.453120 0.425592
vt 0.785268 0.098809
vt 0.785268 0.098809
vt 0.785268 0.098809
vt 0.785268 0.098809
vt 0.453120 0.425592
vt 0.066312 0.773872
vt 0.754957 0.129120
vt 0.754957 0.129120
vt 0.777690 0.129120
vt 0.785268 0.129120
vt 0.785268 0.129120
vt 0.785268 0.129120
vt 0.754957 0.098809
vt 0.754957 0.098809
vt 0.754957 0.098809
vt 0.785268 0.098809
vt 0.785268 0.098809
vt 0.785268 0.098809
vt 0.770113 0.068498
vt 0.785268 0.068498
vt 0.694335 0.189742
vt 0.694335 0.189742
vt 0.724646 0.189742
vt 0.724646 0.189742
vt 0.694335 0.189742
vt 0.694335 0.189742
vt 0.694335 0.189742
vt 0.724646 0.189742
vt 0.724646 0.189742
vt 0.724646 0.189742
vt 0.724646 0.189742
vt 0.694335 0.068498
vt 0.724646 0.068498
vt 0.724646 0.068498
vt 0.694335 0.068498
vt 0.815579 0.068498
vt 0.785268 0.432231
vt 0.754957 0.432231
vt 0.724646 0.432231
vt 0.815579 0.310987
vt 0.785268 0.310987
vt 0.785268 0.310987
vt 0.785268 0.310987
vt 0.754957 0.310987
vt 0.754957 0.310987
vt 0.754957 0.310987
vt 0.724646 0.310987
vt 0.724646 0.310987
vt 0.724646 0.310987
vt 0.694335 0.310987
vt 0.815579 0.189742
vt 0.815579 0.189742
vt 0.785268 0.189742
vt 0.785268 0.189742
vt 0.785268 0.189742
vt 0.754957 0.189742
vt 0.754957 0.189742
vt 0.754957 0.189742
vt 0.754957 0.068498
vn -0.000000 0.000000 1.000000
vn 0.000000 0.000000 1.000000
vn 0.000000 0.000000 1.000000
vn 0.000000 0.000000 1.000000
vn 0.000000 0.000000 1.000000
vn 0.000000 0.000000 1.000000
vn 0.000000 0.000000 1.000000
vn 0.000000 0.000000 1.000000
vn 0.000000 0.000000 1.000000
vn 0.000000 0.000000 1.000000
vn 0.000000 0.000000 1.000000
vn 0.000000 0.000000 1.000000
vn 0.000000 0.000000 1.000000
vn 0.000000 0.000000 1.000000
vn 0.000000 0.000000 1.000000
vn 0.000000 0.000000 1.000000
vn 0.000000 0.000000 1.000000
vn 0.000000 0.000000 1.000000
vn 0.000000 0.000000 1.000000
vn 0.000000 0.000000 1.000000
vn -0.000000 0.000000 1.000000
vn -0.000000 0.000000 1.000000
vn 0.000000 0.000000 1.000000
vn 0.000000 1.000000 0.000000
vn 0.000000 1.000000 0.000000
vn 0.000000 1.000000 0.000000
vn 0.000000 1.000000 0.000000
vn 0.000000 1.000000 0.000000
vn 0.000000 1.000000 0.000000
vn 0.000000 1.000000 0.000000
vn 0.000000 1.000000 0.000000
vn 0.000000 1.000000 0.000000
vn 0.000000 1.000000 0.000000
vn 0.000000 0.000000 -1.000000
vn 0.000000 0.000000 -1.000000
vn 0.000000 0.000000 -1.000000
vn 0.000000 0.000000 -1.000000
vn 0.000000 0.000000 -1.000000
vn 0.000000 0.000000 -1.000000
vn 0.000000 0.000000 -1.000000
vn 0.000000 0.000000 -1.000000
vn 0.000000 0.000000 -1.000000
vn 0.000000 0.000000 -1.000000
vn 1.000000 0.000000 0.000000
vn 1.000000 0.000000 0.000000
vn 1.000000 0.000000 0.000000
vn 1.000000 0.000000 0.000000
vn -1.000000 0.000000 0.000000
vn -1.000000 0.000000 0.000000
vn -1.000000 0.000000 0.000000
vn -1.000000 0.000000 0.000000
vn 1.000000 0.000000 0.000000
vn 1.000000 0.000000 0.000000
vn 1.000000 0.000000 0.000000
vn 1.000000 0.000000 0.000000
vn 0.000000 1.000000 0.000000
vn 0.000000 1.000000 0.000000
vn 0.000000 1.000000 0.000000
vn 0.000000 1.000000 0.000000
vn -1.000000 0.000000 0.000000
vn -1.000000 0.000000 0.000000
vn -1.000000 0.000000 0.000000
vn -1.000000 0.000000 0.000000
vn 0.000000 0.000000 0.000000
vn 0.000000 0.000000 0.000000
vn 0.000000 0.000000 0.000000
vn 1.000000 0.000000 0.000000
vn 0.000000 0.000000 0.000000
vn 0.000000 0.000000 0.000000
vn 0.000000 0.000000 0.000000
vn 0.000000 0.000000 0.000000
vn -0.000000 0.000000 0.000000
vn -0.000000 0.000000 0.000000
vn -1.000000 0.000000 0.000000
vn -0.000000 0.000000 0.000000
vn 0.000000 0.000000 1.000000
vn 0.000000 0.000000 1.000000
vn 0.000000 0.000000 1.000000
vn 0.000000 0.000000 1.000000
vn 0.000000 0.000000 1.000000
vn 0.000000 0.000000 1.000000
vn 0.000000 0.000000 1.000000
vn 0.000000 0.000000 1.000000
vn 0.000000 1.000000 -0.000000
vn 0.000000 1.000000 -0.000000
vn 0.000000 1.000000 -0.000000
vn 0.000000 1.000000 -0.000000
vn 0.000000 1.000000 -0.000000
vn 0.000000 1.000000 -0.000000
vn 0.000000 1.000000 0.000000
vn 0.000000 1.000000 0.000000
vn 0.000000 -1.000000 0.000000
vn 0.000000 -1.000000 0.000000
vn 0.000000 -1.000000 0.000000
vn 0.000000 -1.000000 0.000000
vn 0.000000 -1.000000 0.000000
vn 0.000000 -1.000000 0.000000
vn 0.000000 -1.000000 0.000000
vn 0.000000 -1.000000 0.000000
vn 1.000000 0.000000 0.000000
vn 1.000000 0.000000 0.000000
vn 1.000000 0.000000 0.000000
vn 1.000000 0.000000 0.000000
vn 1.000000 0.000000 0.000000
vn 1.000000 0.000000 0.000000
vn 0.000000 1.000000 0.000000
vn 0.000000 1.000000 0.000000
vn 0.000000 1.000000 0.000000
vn 0.000000 1.000000 0.000000
vn 0.000000 1.000000 0.000000
vn 0.000000 1.000000 0.000000
vn 0.000000 1.000000 0.000000
vn 0.000000 1.000000 0.000000
vn -1.000000 0.000000 0.000000
vn -1.000000 0.000000 0.000000
vn -1.000000 0.000000 0.000000
vn -1.000000 0.000000 0.000000
vn -1.000000 0.000000 0.000000
vn -1.000000 0.000000 0.000000
vn 1.000000 0.000000 0.000000
vn 1.000000 0.000000 0.000000
vn 1.000000 0.000000 0.000000
vn 1.000000 0.000000 0.000000
vn 0.000000 0.000000 1.000000
vn 0.000000 0.000000 1.000000
vn 0.000000 0.000000 1.000000
vn 0.000000 0.000000 1.000000
vn -1.000000 0.000000 0.000000
vn -1.000000 0.000000 0.000000
vn -1.000000 0.000000 0.000000
vn -1.000000 0.000000 0.000000
vn 0.000001 0.000000 -1.000000
vn 0.000001 0.000000 -1.000000
vn 0.000001 0.000000 -1.000000
vn 0.000001 0.000000 -1.000000
vn 0.000000 0.000000 1.000000
vn 0.000000 0.000000 1.000000
vn 0.000000 0.000000 1.000000
vn 0.000000 0.000000 1.000000
vn -1.000000 0.000000 0.000000
vn -1.000000 0.000000 0.000000
vn -1.000000 0.000000 0.000000
vn -1.000000 0.000000 0.000000
vn -0.000001 0.000000 -1.000000
vn -0.000001 0.000000 -1.000000
vn -0.000001 0.000000 -1.000000
vn -0.000001 0.000000 -1.000000
vn 1.000000 0.000000 0.000000
vn 1.000000 0.000000 0.000000
vn 1.000000 0.000000 0.000000
vn 1.000000 0.000000 0.000000
vn 0.000000 0.000000 1.000000
vn 0.000000 0.000000 1.000000
vn 0.000000 0.000000 1.000000
vn 0.000000 0.000000 1.000000
vn 1.000000 0.000000 0.000000
vn 1.000000 0.000000 0.000000
vn 1.000000 0.000000 0.000000
vn 1.000000 0.000000 0.000000
vn 0.000001 0.000000 -1.000000
vn 0.000001 0.000000 -1.000000
vn 0.000001 0.000000 -1.000000
vn 0.000001 0.000000 -1.000000
vn -1.000000 0.000000 0.000000
vn -1.000000 0.000000 0.000000
vn -1.000000 0.000000 0.000000
vn -1.000000 0.000000 0.000000
vn -1.000000 0.000000 0.000000
vn -1.000000 0.000000 0.000000
vn -1.000000 0.000000 0.000000
vn -1.000000 0.000000 0.000000
vn 0.000000 0.000000 1.000000
vn 0.000000 0.000000 1.000000
vn 0.000000 0.000000 1.000000
vn 0.000000 0.000000 1.000000
vn 1.000000 0.000000 0.000000
vn 1.000000 0.000000 0.000000
vn 1.000000 0.000000 0.000000
vn 1.000000 0.000000 0.000000
vn -0.000001 0.000000 -1.000000
vn -0.000001 0.000000 -1.000000
vn -0.000001 0.000000 -1.000000
vn -0.000001 0.000000 -1.000000
s 1
g pCube1
usemtl initialShadingGroup
f 32/140/1 33/136/2 4/4/3
f 4/4/3 33/136/2 31/142/4
f 33/136/2 3/182/5 31/142/4
s off
f 24/28/6 25/147/7 26/145/8 23/155/9
s 1
f 10/179/10 9/153/11 6/6/12
f 9/153/11 2/157/13 6/6/12
f 6/6/12 2/157/13 33/137/2
f 2/157/13 3/3/5 33/137/2
s 3
f 7/7/14 28/32/15 6/129/16
f 6/129/16 28/32/15 27/31/17
f 28/32/15 29/33/18 27/31/17
f 29/33/18 30/34/19 27/31/17
s 1
f 5/5/20 12/174/21 4/143/3
f 4/143/3 12/174/21 32/139/1
f 32/139/1 12/174/21 7/133/22
f 12/174/21 11/178/23 7/133/22
s 4
f 9/151/24 14/171/25 13/173/26 8/149/27
f 10/180/28 15/168/29 14/170/25 9/152/24
f 11/176/30 16/165/31 15/167/29 10/181/28
f 12/175/32 17/17/33 16/164/31 11/177/30
s 5
f 14/172/34 19/162/35 18/18/36 13/13/37
f 15/169/38 20/161/39 19/19/35 14/14/34
f 16/166/40 21/160/41 20/20/39 15/15/38
f 17/163/42 22/22/43 21/21/41 16/16/40
s off
f 12/12/44 5/159/45 22/23/46 17/24/47
f 8/148/48 13/26/49 18/25/50 1/1/51
f 24/156/52 2/2/53 9/154/54 25/146/55
f 9/9/56 8/150/57 26/144/58 25/29/59
f 23/27/60 26/30/61 8/8/62 1/158/63
f 7/7/64 11/11/65 29/33/66 28/32/67
f 11/11/68 10/10/69 30/34/70 29/33/71
f 10/10/72 6/129/73 27/31/74 30/34/75
s 6
f 34/123/76 35/94/77 43/120/78
f 35/94/77 41/96/79 43/120/78
f 43/120/78 41/96/79 49/108/80
f 41/96/79 46/77/81 49/108/80
f 46/77/81 36/80/82 49/108/80
f 36/80/82 37/112/83 49/108/80
s 7
f 38/89/84 7/135/85 40/132/86
f 7/135/85 6/130/87 40/132/86
f 45/84/88 44/72/89 6/130/87
f 6/130/87 44/72/89 40/132/86
f 40/132/86 44/72/89 41/97/90
f 44/72/89 46/76/91 41/97/90
s 8
f 47/105/92 33/36/93 48/101/94
f 33/36/93 32/141/95 48/101/94
f 39/127/96 42/116/97 32/141/95
f 32/141/95 42/116/97 48/101/94
f 48/101/94 42/116/97 49/109/98
f 42/116/97 43/119/99 49/109/98
s 9
f 35/93/100 34/124/101 38/90/102
f 34/124/101 39/126/103 38/90/102
f 38/90/102 39/126/103 7/134/104
f 39/126/103 32/35/105 7/134/104
s off
f 58/61/106 59/88/107 60/63/108 61/64/109
f 62/65/110 63/75/111 64/70/112 65/68/113
s 10
f 37/111/114 36/81/115 47/106/116
f 36/81/115 45/83/117 47/106/116
f 47/106/116 45/83/117 33/138/118
f 45/83/117 6/131/119 33/138/118
s off
f 39/42/120 34/125/121 51/118/122 50/53/123
f 34/37/124 43/121/125 52/114/126 51/54/127
f 43/46/128 42/117/129 53/115/130 52/55/131
f 42/45/132 39/128/133 50/122/134 53/56/135
f 49/52/136 37/113/137 54/104/138 55/57/139
f 37/40/140 47/107/141 56/103/142 54/58/143
f 47/50/144 48/102/145 57/100/146 56/59/147
f 48/51/148 49/110/149 55/99/150 57/60/151
f 41/44/152 35/95/153 59/87/154 58/92/155
f 35/38/156 38/91/157 60/86/158 59/62/159
f 38/41/160 40/43/161 61/64/162 60/63/163
f 40/43/164 41/98/165 58/61/166 61/64/167
f 45/48/168 36/82/169 63/74/170 62/79/171
f 36/39/172 46/78/173 64/69/174 63/66/175
f 46/49/176 44/73/177 65/71/178 64/67/179
f 44/47/180 45/85/181 62/65/182 65/68/183
