# This file uses centimeters as units for non-parametric coordinates.

mtllib racetrack.mtl
g default
v -4.674428 0.000000 3.667000
v -2.327136 0.000000 3.667000
v -4.674428 3.000000 3.667000
v -2.327136 3.000000 3.667000
v -4.674428 3.000000 2.667000
v -2.327136 3.000000 2.667000
v -4.674428 0.000000 2.667000
v -2.327136 0.000000 2.667000
vt 0.512292 0.028270
vt 0.980655 0.728864
vt 0.550239 0.250793
vt 0.262292 0.278270
vt 0.768934 0.728864
vt 0.976620 0.640417
vt 0.768934 0.978864
vt 0.980655 0.978864
vt 0.512292 0.028270
vt 0.512292 0.278270
vt 0.262292 0.028270
vt 0.262292 0.278270
vt 0.980655 0.728864
vt 0.550239 0.640417
vt 0.262292 0.028270
vt 0.980655 0.978864
vt 0.976620 0.250793
vt 0.768934 0.728864
vt 0.768934 0.978864
vt 0.512292 0.278270
vn 0.000000 0.000000 1.000000
vn 0.000000 0.000000 1.000000
vn 0.000000 0.000000 1.000000
vn 0.000000 0.000000 1.000000
vn 0.000000 1.000000 0.000000
vn 0.000000 1.000000 0.000000
vn 0.000000 1.000000 0.000000
vn 0.000000 1.000000 0.000000
vn 0.000000 0.000000 -1.000000
vn 0.000000 0.000000 -1.000000
vn 0.000000 0.000000 -1.000000
vn 0.000000 0.000000 -1.000000
vn 1.000000 0.000000 0.000000
vn 1.000000 0.000000 0.000000
vn 1.000000 0.000000 0.000000
vn 1.000000 0.000000 0.000000
vn -1.000000 0.000000 0.000000
vn -1.000000 0.000000 0.000000
vn -1.000000 0.000000 0.000000
vn -1.000000 0.000000 0.000000
s off
g pCube14
usemtl initialShadingGroup
f 1/18/1 2/2/2 4/16/3 3/19/4
f 3/3/5 4/17/6 6/6/7 5/14/8
f 5/5/9 6/13/10 8/8/11 7/7/12
f 2/15/13 8/9/14 6/10/15 4/4/16
f 7/11/17 1/1/18 3/20/19 5/12/20
g default
v 2.366199 0.000000 -2.666818
v 4.713491 0.000000 -2.666818
v 2.366199 2.000000 -2.666818
v 4.713491 2.000000 -2.666818
v 2.366199 2.000000 -3.666818
v 4.713491 2.000000 -3.666818
v 2.366199 0.000000 -3.666818
v 4.713491 0.000000 -3.666818
vt 0.512292 0.028270
vt 0.520974 0.708893
vt 0.550239 0.250793
vt 0.262292 0.278270
vt 0.270974 0.708893
vt 0.976620 0.640417
vt 0.270974 0.981052
vt 0.520974 0.981052
vt 0.512292 0.028270
vt 0.512292 0.278270
vt 0.262292 0.028270
vt 0.262292 0.278270
vt 0.520974 0.708893
vt 0.550239 0.640417
vt 0.262292 0.028270
vt 0.520974 0.981052
vt 0.976620 0.250793
vt 0.270974 0.708893
vt 0.270974 0.981052
vt 0.512292 0.278270
vn 0.000000 0.000000 1.000000
vn 0.000000 0.000000 1.000000
vn 0.000000 0.000000 1.000000
vn 0.000000 0.000000 1.000000
vn 0.000000 1.000000 0.000000
vn 0.000000 1.000000 0.000000
vn 0.000000 1.000000 0.000000
vn 0.000000 1.000000 0.000000
vn 0.000000 0.000000 -1.000000
vn 0.000000 0.000000 -1.000000
vn 0.000000 0.000000 -1.000000
vn 0.000000 0.000000 -1.000000
vn 1.000000 0.000000 0.000000
vn 1.000000 0.000000 0.000000
vn 1.000000 0.000000 0.000000
vn 1.000000 0.000000 0.000000
vn -1.000000 0.000000 0.000000
vn -1.000000 0.000000 0.000000
vn -1.000000 0.000000 0.000000
vn -1.000000 0.000000 0.000000
s off
g pCube13
usemtl initialShadingGroup
f 9/38/21 10/22/22 12/36/23 11/39/24
f 11/23/25 12/37/26 14/26/27 13/34/28
f 13/25/29 14/33/30 16/28/31 15/27/32
f 10/35/33 16/29/34 14/30/35 12/24/36
f 15/31/37 9/21/38 11/40/39 13/32/40
g default
v 0.018923 0.000000 3.667000
v 2.366215 0.000000 3.667000
v 0.018923 2.500000 3.667000
v 2.366215 2.500000 3.667000
v 0.018923 2.500000 2.667000
v 2.366215 2.500000 2.667000
v 0.018923 0.000000 2.667000
v 2.366215 0.000000 2.667000
vt 0.512292 0.028270
vt 0.520879 0.708693
vt 0.550239 0.250793
vt 0.262292 0.278270
vt 0.270879 0.708693
vt 0.976620 0.640417
vt 0.270879 0.980905
vt 0.520879 0.980905
vt 0.512292 0.028270
vt 0.512292 0.278270
vt 0.262292 0.028270
vt 0.262292 0.278270
vt 0.520879 0.708693
vt 0.550239 0.640417
vt 0.262292 0.028270
vt 0.520879 0.980905
vt 0.976620 0.250793
vt 0.270879 0.708693
vt 0.270879 0.980905
vt 0.512292 0.278270
vn 0.000000 0.000000 1.000000
vn 0.000000 0.000000 1.000000
vn 0.000000 0.000000 1.000000
vn 0.000000 0.000000 1.000000
vn 0.000000 1.000000 0.000000
vn 0.000000 1.000000 0.000000
vn 0.000000 1.000000 0.000000
vn 0.000000 1.000000 0.000000
vn 0.000000 0.000000 -1.000000
vn 0.000000 0.000000 -1.000000
vn 0.000000 0.000000 -1.000000
vn 0.000000 0.000000 -1.000000
vn 1.000000 0.000000 0.000000
vn 1.000000 0.000000 0.000000
vn 1.000000 0.000000 0.000000
vn 1.000000 0.000000 0.000000
vn -1.000000 0.000000 0.000000
vn -1.000000 0.000000 0.000000
vn -1.000000 0.000000 0.000000
vn -1.000000 0.000000 0.000000
s off
g pCube16
usemtl initialShadingGroup
f 17/58/41 18/42/42 20/56/43 19/59/44
f 19/43/45 20/57/46 22/46/47 21/54/48
f 21/45/49 22/53/50 24/48/51 23/47/52
f 18/55/53 24/49/54 22/50/55 20/44/56
f 23/51/57 17/41/58 19/60/59 21/52/60
g default
v -2.327131 0.000000 3.667000
v 0.020161 0.000000 3.667000
v -2.327131 6.000000 3.667000
v 0.020161 6.000000 3.667000
v -2.327131 6.000000 2.667000
v 0.020161 6.000000 2.667000
v -2.327131 0.000000 2.667000
v 0.020161 0.000000 2.667000
vt 0.512292 0.028270
vt 0.752070 0.681970
vt 0.550239 0.250793
vt 0.262292 0.278270
vt 0.538302 0.681970
vt 0.976620 0.640417
vt 0.538302 0.977974
vt 0.752070 0.977974
vt 0.512292 0.028270
vt 0.512292 0.278270
vt 0.262292 0.028270
vt 0.262292 0.278270
vt 0.752070 0.681970
vt 0.550239 0.640417
vt 0.262292 0.028270
vt 0.752070 0.977974
vt 0.976620 0.250793
vt 0.538302 0.681970
vt 0.538302 0.977974
vt 0.512292 0.278270
vn 0.000000 0.000000 1.000000
vn 0.000000 0.000000 1.000000
vn 0.000000 0.000000 1.000000
vn 0.000000 0.000000 1.000000
vn 0.000000 1.000000 0.000000
vn 0.000000 1.000000 0.000000
vn 0.000000 1.000000 0.000000
vn 0.000000 1.000000 0.000000
vn 0.000000 0.000000 -1.000000
vn 0.000000 0.000000 -1.000000
vn 0.000000 0.000000 -1.000000
vn 0.000000 0.000000 -1.000000
vn 1.000000 0.000000 0.000000
vn 1.000000 0.000000 0.000000
vn 1.000000 0.000000 0.000000
vn 1.000000 0.000000 0.000000
vn -1.000000 0.000000 0.000000
vn -1.000000 0.000000 0.000000
vn -1.000000 0.000000 0.000000
vn -1.000000 0.000000 0.000000
s off
g pCube15
usemtl initialShadingGroup
f 25/78/61 26/62/62 28/76/63 27/79/64
f 27/63/65 28/77/66 30/66/67 29/74/68
f 29/65/69 30/73/70 32/68/71 31/67/72
f 26/75/73 32/69/74 30/70/75 28/64/76
f 31/71/77 25/61/78 27/80/79 29/72/80
g default
v -4.674428 0.000000 -2.666818
v -2.327136 0.000000 -2.666818
v -4.674428 5.000000 -2.666818
v -2.327136 5.000000 -2.666818
v -4.674428 5.000000 -3.666818
v -2.327136 5.000000 -3.666818
v -4.674428 0.000000 -3.666818
v -2.327136 0.000000 -3.666818
vt 0.512292 0.028270
vt 0.751762 0.681452
vt 0.550239 0.250793
vt 0.262292 0.278270
vt 0.537994 0.681452
vt 0.976620 0.640417
vt 0.537994 0.978553
vt 0.751762 0.978553
vt 0.512292 0.028270
vt 0.512292 0.278270
vt 0.262292 0.028270
vt 0.262292 0.278270
vt 0.751762 0.681452
vt 0.550239 0.640417
vt 0.262292 0.028270
vt 0.751762 0.978553
vt 0.976620 0.250793
vt 0.537994 0.681452
vt 0.537994 0.978553
vt 0.512292 0.278270
vn 0.000000 0.000000 1.000000
vn 0.000000 0.000000 1.000000
vn 0.000000 0.000000 1.000000
vn 0.000000 0.000000 1.000000
vn 0.000000 1.000000 0.000000
vn 0.000000 1.000000 0.000000
vn 0.000000 1.000000 0.000000
vn 0.000000 1.000000 0.000000
vn 0.000000 0.000000 -1.000000
vn 0.000000 0.000000 -1.000000
vn 0.000000 0.000000 -1.000000
vn 0.000000 0.000000 -1.000000
vn 1.000000 0.000000 0.000000
vn 1.000000 0.000000 0.000000
vn 1.000000 0.000000 0.000000
vn 1.000000 0.000000 0.000000
vn -1.000000 0.000000 0.000000
vn -1.000000 0.000000 0.000000
vn -1.000000 0.000000 0.000000
vn -1.000000 0.000000 0.000000
s off
g pCube10
usemtl initialShadingGroup
f 33/98/81 34/82/82 36/96/83 35/99/84
f 35/83/85 36/97/86 38/86/87 37/94/88
f 37/85/89 38/93/90 40/88/91 39/87/92
f 34/95/93 40/89/94 38/90/95 36/84/96
f 39/91/97 33/81/98 35/100/99 37/92/100
g default
v -2.327131 0.000000 -2.666818
v 0.020161 0.000000 -2.666818
v -2.327131 3.000000 -2.666818
v 0.020161 3.000000 -2.666818
v -2.327131 3.000000 -3.666818
v 0.020161 3.000000 -3.666818
v -2.327131 0.000000 -3.666818
v 0.020161 0.000000 -3.666818
vt 0.512292 0.028270
vt 0.245724 0.737495
vt 0.550239 0.250793
vt 0.262292 0.278270
vt 0.018303 0.737495
vt 0.976620 0.640417
vt 0.018303 0.975156
vt 0.245724 0.975156
vt 0.512292 0.028270
vt 0.512292 0.278270
vt 0.262292 0.028270
vt 0.262292 0.278270
vt 0.245724 0.737495
vt 0.550239 0.640417
vt 0.262292 0.028270
vt 0.245724 0.975156
vt 0.976620 0.250793
vt 0.018303 0.737495
vt 0.018303 0.975156
vt 0.512292 0.278270
vn 0.000000 0.000000 1.000000
vn 0.000000 0.000000 1.000000
vn 0.000000 0.000000 1.000000
vn 0.000000 0.000000 1.000000
vn 0.000000 1.000000 0.000000
vn 0.000000 1.000000 0.000000
vn 0.000000 1.000000 0.000000
vn 0.000000 1.000000 0.000000
vn 0.000000 0.000000 -1.000000
vn 0.000000 0.000000 -1.000000
vn 0.000000 0.000000 -1.000000
vn 0.000000 0.000000 -1.000000
vn 1.000000 0.000000 0.000000
vn 1.000000 0.000000 0.000000
vn 1.000000 0.000000 0.000000
vn 1.000000 0.000000 0.000000
vn -1.000000 0.000000 0.000000
vn -1.000000 0.000000 0.000000
vn -1.000000 0.000000 0.000000
vn -1.000000 0.000000 0.000000
s off
g pCube11
usemtl initialShadingGroup
f 41/118/101 42/102/102 44/116/103 43/119/104
f 43/103/105 44/117/106 46/106/107 45/114/108
f 45/105/109 46/113/110 48/108/111 47/107/112
f 42/115/113 48/109/114 46/110/115 44/104/116
f 47/111/117 41/101/118 43/120/119 45/112/120
g default
v 2.366199 0.000000 3.667000
v 4.713491 0.000000 3.667000
v 2.366199 4.500000 3.667000
v 4.713491 4.500000 3.667000
v 2.366199 4.500000 2.667000
v 4.713491 4.500000 2.667000
v 2.366199 0.000000 2.667000
v 4.713491 0.000000 2.667000
vt 0.512292 0.028270
vt 0.246171 0.737820
vt 0.550239 0.250793
vt 0.262292 0.278270
vt 0.017910 0.737820
vt 0.976620 0.640417
vt 0.017910 0.976950
vt 0.246171 0.976950
vt 0.512292 0.028270
vt 0.512292 0.278270
vt 0.262292 0.028270
vt 0.262292 0.278270
vt 0.246171 0.737820
vt 0.550239 0.640417
vt 0.262292 0.028270
vt 0.246171 0.976950
vt 0.976620 0.250793
vt 0.017910 0.737820
vt 0.017910 0.976950
vt 0.512292 0.278270
vn 0.000000 0.000000 1.000000
vn 0.000000 0.000000 1.000000
vn 0.000000 0.000000 1.000000
vn 0.000000 0.000000 1.000000
vn 0.000000 1.000000 0.000000
vn 0.000000 1.000000 0.000000
vn 0.000000 1.000000 0.000000
vn 0.000000 1.000000 0.000000
vn 0.000000 0.000000 -1.000000
vn 0.000000 0.000000 -1.000000
vn 0.000000 0.000000 -1.000000
vn 0.000000 0.000000 -1.000000
vn 1.000000 0.000000 0.000000
vn 1.000000 0.000000 0.000000
vn 1.000000 0.000000 0.000000
vn 1.000000 0.000000 0.000000
vn -1.000000 0.000000 0.000000
vn -1.000000 0.000000 0.000000
vn -1.000000 0.000000 0.000000
vn -1.000000 0.000000 0.000000
s off
g pCube17
usemtl initialShadingGroup
f 49/138/121 50/122/122 52/136/123 51/139/124
f 51/123/125 52/137/126 54/126/127 53/134/128
f 53/125/129 54/133/130 56/128/131 55/127/132
f 50/135/133 56/129/134 54/130/135 52/124/136
f 55/131/137 49/121/138 51/140/139 53/132/140
g default
v 0.018923 0.000000 -2.666818
v 2.366215 0.000000 -2.666818
v 0.018923 4.000000 -2.666818
v 2.366215 4.000000 -2.666818
v 0.018923 4.000000 -3.666818
v 2.366215 4.000000 -3.666818
v 0.018923 0.000000 -3.666818
v 2.366215 0.000000 -3.666818
vt 0.512292 0.028270
vt 0.980504 0.728474
vt 0.550239 0.250793
vt 0.262292 0.278270
vt 0.768784 0.728474
vt 0.976620 0.640417
vt 0.768784 0.978474
vt 0.980504 0.978474
vt 0.512292 0.028270
vt 0.512292 0.278270
vt 0.262292 0.028270
vt 0.262292 0.278270
vt 0.980504 0.728474
vt 0.550239 0.640417
vt 0.262292 0.028270
vt 0.980504 0.978474
vt 0.976620 0.250793
vt 0.768784 0.728474
vt 0.768784 0.978474
vt 0.512292 0.278270
vn 0.000000 0.000000 1.000000
vn 0.000000 0.000000 1.000000
vn 0.000000 0.000000 1.000000
vn 0.000000 0.000000 1.000000
vn 0.000000 1.000000 0.000000
vn 0.000000 1.000000 0.000000
vn 0.000000 1.000000 0.000000
vn 0.000000 1.000000 0.000000
vn 0.000000 0.000000 -1.000000
vn 0.000000 0.000000 -1.000000
vn 0.000000 0.000000 -1.000000
vn 0.000000 0.000000 -1.000000
vn 1.000000 0.000000 0.000000
vn 1.000000 0.000000 0.000000
vn 1.000000 0.000000 0.000000
vn 1.000000 0.000000 0.000000
vn -1.000000 0.000000 0.000000
vn -1.000000 0.000000 0.000000
vn -1.000000 0.000000 0.000000
vn -1.000000 0.000000 0.000000
s off
g pCube12
usemtl initialShadingGroup
f 57/158/141 58/142/142 60/156/143 59/159/144
f 59/143/145 60/157/146 62/146/147 61/154/148
f 61/145/149 62/153/150 64/148/151 63/147/152
f 58/155/153 64/149/154 62/150/155 60/144/156
f 63/151/157 57/141/158 59/160/159 61/152/160
g default
v -7.000000 0.030000 2.666667
v -4.666667 0.030000 2.666667
v -2.333333 0.030000 2.666667
v 0.000000 0.030000 2.666667
v 2.333333 0.030000 2.666667
v 4.666667 0.030000 2.666667
v 7.000000 0.030000 2.666667
v -7.000000 0.030000 1.333333
v -4.666667 0.030000 1.333333
v -2.333333 0.030000 1.333333
v 0.000000 0.030000 1.333333
v 2.333333 0.030000 1.333333
v 4.666667 0.030000 1.333333
v 7.000000 0.030000 1.333333
v -7.000000 0.030000 0.000000
v -4.666667 0.030000 0.000000
v -2.333333 0.030000 0.000000
v 0.000000 0.030000 0.000000
v 2.333333 0.030000 0.000000
v 4.666667 0.030000 0.000000
v 7.000000 0.030000 0.000000
v -7.000000 0.030000 -1.333333
v -4.666667 0.030000 -1.333333
v -2.333333 0.030000 -1.333333
v 0.000000 0.030000 -1.333333
v 2.333333 0.030000 -1.333333
v 4.666667 0.030000 -1.333333
v 7.000000 0.030000 -1.333333
v -7.000000 0.030000 -2.666667
v -4.666667 0.030000 -2.666667
v -2.333333 0.030000 -2.666667
v 0.000000 0.030000 -2.666667
v 2.333333 0.030000 -2.666667
v 4.666667 0.030000 -2.666667
v 7.000000 0.030000 -2.666667
vt 0.044962 0.390209
vt 0.044962 0.330541
vt 0.079058 0.330541
vt 0.079058 0.390209
vt 0.044962 0.270873
vt 0.079058 0.270873
vt 0.113154 0.330541
vt 0.113154 0.390209
vt 0.044962 0.211204
vt 0.079058 0.211204
vt 0.113154 0.270873
vt 0.147250 0.330541
vt 0.147250 0.390209
vt 0.044962 0.151536
vt 0.079058 0.151536
vt 0.113154 0.211204
vt 0.147250 0.270873
vt 0.181347 0.330541
vt 0.181347 0.390209
vt 0.044962 0.091868
vt 0.079058 0.091868
vt 0.113154 0.151536
vt 0.147250 0.211204
vt 0.181347 0.270873
vt 0.044962 0.032199
vt 0.079058 0.032199
vt 0.113154 0.091868
vt 0.147250 0.151536
vt 0.181347 0.211204
vt 0.113154 0.032199
vt 0.147250 0.091868
vt 0.181347 0.151536
vt 0.147250 0.032199
vt 0.181347 0.091868
vt 0.181347 0.032199
vn 0.000000 1.000000 0.000000
vn 0.000000 1.000000 0.000000
vn 0.000000 1.000000 0.000000
vn 0.000000 1.000000 0.000000
vn 0.000000 1.000000 0.000000
vn 0.000000 1.000000 0.000000
vn 0.000000 1.000000 0.000000
vn 0.000000 1.000000 0.000000
vn 0.000000 1.000000 0.000000
vn 0.000000 1.000000 0.000000
vn 0.000000 1.000000 0.000000
vn 0.000000 1.000000 0.000000
vn 0.000000 1.000000 0.000000
vn 0.000000 1.000000 0.000000
vn 0.000000 1.000000 0.000000
vn 0.000000 1.000000 0.000000
vn 0.000000 1.000000 0.000000
vn 0.000000 1.000000 0.000000
vn 0.000000 1.000000 0.000000
vn 0.000000 1.000000 0.000000
vn 0.000000 1.000000 0.000000
vn 0.000000 1.000000 0.000000
vn 0.000000 1.000000 0.000000
vn 0.000000 1.000000 0.000000
vn 0.000000 1.000000 0.000000
vn 0.000000 1.000000 0.000000
vn 0.000000 1.000000 0.000000
vn 0.000000 1.000000 0.000000
vn 0.000000 1.000000 0.000000
vn 0.000000 1.000000 0.000000
vn 0.000000 1.000000 0.000000
vn 0.000000 1.000000 0.000000
vn 0.000000 1.000000 0.000000
vn 0.000000 1.000000 0.000000
vn 0.000000 1.000000 0.000000
s 1
g polySurface3 pCube9
usemtl lambert2SG
f 65/161/161 66/162/162 73/163/163 72/164/164
f 66/162/162 67/165/165 74/166/166 73/163/163
f 67/165/165 68/169/167 75/170/168 74/166/166
f 68/169/167 69/174/169 76/175/170 75/170/168
f 69/174/169 70/180/171 77/181/172 76/175/170
f 70/180/171 71/185/173 78/186/174 77/181/172
f 72/164/164 73/163/163 80/167/175 79/168/176
f 73/163/163 74/166/166 81/171/177 80/167/175
f 74/166/166 75/170/168 82/176/178 81/171/177
f 75/170/168 76/175/170 83/182/179 82/176/178
f 76/175/170 77/181/172 84/187/180 83/182/179
f 77/181/172 78/186/174 85/190/181 84/187/180
f 79/168/176 80/167/175 87/172/182 86/173/183
f 80/167/175 81/171/177 88/177/184 87/172/182
f 81/171/177 82/176/178 89/183/185 88/177/184
f 82/176/178 83/182/179 90/188/186 89/183/185
f 83/182/179 84/187/180 91/191/187 90/188/186
f 84/187/180 85/190/181 92/193/188 91/191/187
f 86/173/183 87/172/182 94/178/189 93/179/190
f 87/172/182 88/177/184 95/184/191 94/178/189
f 88/177/184 89/183/185 96/189/192 95/184/191
f 89/183/185 90/188/186 97/192/193 96/189/192
f 90/188/186 91/191/187 98/194/194 97/192/193
f 91/191/187 92/193/188 99/195/195 98/194/194
