# This file uses centimeters as units for non-parametric coordinates.

mtllib track.mtl
g default
v -4.666667 0.014743 4.000000
v -2.333334 0.014743 4.000000
v 0.000000 0.014743 4.000000
v 2.333334 0.014743 4.000000
v 4.666667 0.014743 4.000000
v -7.000000 0.014743 2.666667
v -4.666667 0.014743 2.666667
v -2.333334 0.014743 2.666667
v 0.000000 0.014743 2.666667
v 2.333334 0.014743 2.666667
v 4.666667 0.014743 2.666667
v 7.000000 0.014743 2.666667
v -7.000000 0.014743 1.333333
v -4.666667 0.014743 1.333333
v -2.333334 0.014743 1.333333
v 0.000000 0.014743 1.333333
v 2.333334 0.014743 1.333333
v 4.666667 0.014743 1.333333
v 7.000000 0.014743 1.333333
v -7.000000 0.014743 0.000000
v -4.666667 0.014743 0.000000
v -2.333334 0.014743 0.000000
v 0.000000 0.014743 0.000000
v 2.333334 0.014743 0.000000
v 4.666667 0.014743 0.000000
v 7.000000 0.014743 0.000000
v -7.000000 0.014743 -1.333333
v -4.666667 0.014743 -1.333333
v -2.333334 0.014743 -1.333333
v 0.000000 0.014743 -1.333333
v 2.333334 0.014743 -1.333333
v 4.666667 0.014743 -1.333333
v 7.000000 0.014743 -1.333333
v -7.000000 0.014743 -2.666667
v -4.666667 0.014743 -2.666667
v -2.333334 0.014743 -2.666667
v 0.000000 0.014743 -2.666667
v 2.333334 0.014743 -2.666667
v 4.666667 0.014743 -2.666667
v 7.000000 0.014743 -2.666667
v -4.666667 0.014743 -4.000000
v -2.333334 0.014743 -4.000000
v 0.000000 0.014743 -4.000000
v 2.333334 0.014743 -4.000000
v 4.666667 0.014743 -4.000000
v -4.666667 2.750618 4.000000
v -2.333334 2.750618 4.000000
v -2.333334 2.750618 2.666667
v -4.666667 2.750618 2.666667
v -2.333334 5.507807 4.000000
v 0.000000 5.507807 4.000000
v 0.000000 5.507807 2.666667
v -2.333334 5.507807 2.666667
v 0.000000 4.328983 4.000000
v 2.333334 4.328983 4.000000
v 2.333334 4.328983 2.666667
v 0.000000 4.328983 2.666667
v 2.333334 4.732116 4.000000
v 4.666667 4.732116 4.000000
v 4.666667 4.732116 2.666667
v 2.333334 4.732116 2.666667
v -4.666667 3.854008 -2.666667
v -2.333334 3.854008 -2.666667
v -2.333334 3.854008 -4.000000
v -4.666667 3.854008 -4.000000
v -2.333334 4.762802 -2.666667
v 0.000000 4.762802 -2.666667
v 0.000000 4.762802 -4.000000
v -2.333334 4.762802 -4.000000
v 0.000000 6.088695 -2.666667
v 2.333334 6.088695 -2.666667
v 2.333334 6.088695 -4.000000
v 0.000000 6.088695 -4.000000
v 2.333334 3.207831 -2.666667
v 4.666667 3.207831 -2.666667
v 4.666667 3.207831 -4.000000
v 2.333334 3.207831 -4.000000
vt 0.156213 0.000000
vt 0.203592 1.836464
vt 0.370259 1.836464
vt 0.536925 1.836464
vt 0.703592 1.836464
vt 1.072830 1.293073
vt 0.156213 0.166667
vt 0.322879 0.166667
vt 0.489546 0.166667
vt 0.656213 0.166667
vt 0.703592 1.875706
vt 1.072830 1.433170
vt 1.212927 1.433170
vt 1.353023 1.433170
vt 1.493120 1.433170
vt 1.633217 1.433170
vt 1.773313 1.433170
vt 1.913410 1.433170
vt 1.072830 1.573267
vt 1.212927 1.573267
vt 1.353023 1.573267
vt 1.493120 1.573267
vt 1.633217 1.573267
vt 1.773313 1.573267
vt 1.913410 1.573267
vt 1.072830 1.713363
vt 1.212927 1.713363
vt 1.353023 1.713363
vt 1.493120 1.713363
vt 1.633217 1.713363
vt 1.773313 1.713363
vt 1.913410 1.713363
vt 0.036925 1.909884
vt 0.203592 1.909884
vt 0.370259 1.909884
vt 0.536925 1.909884
vt 0.822879 0.833333
vt 1.913410 1.853460
vt 0.036925 1.953759
vt 0.203592 1.953759
vt 0.370259 1.953759
vt 0.536925 1.953759
vt 0.822879 1.000000
vt 1.006463 0.637688
vt 0.322879 0.000000
vt 0.203592 1.875706
vt 0.156213 0.166667
vt 1.173130 0.637688
vt 0.489546 0.000000
vt 0.370259 1.875706
vt 0.322879 0.166667
vt 1.339796 0.637688
vt 0.656213 0.000000
vt 0.536925 1.875706
vt 0.489546 0.166667
vt 1.506463 0.637688
vt 0.822879 0.000000
vt 0.703592 1.875706
vt 0.656213 0.166667
vt 1.006463 0.833333
vt 0.322879 0.833333
vt 0.203592 1.953759
vt 0.156213 1.000000
vt 1.173130 0.833333
vt 0.489546 0.833333
vt 0.370259 1.953759
vt 0.322879 1.000000
vt 1.339796 0.833333
vt 0.656213 0.833333
vt 0.536925 1.953759
vt 0.489546 1.000000
vt 1.506463 0.833333
vt 0.822879 0.833333
vt 0.703592 1.953759
vt 0.656213 1.000000
vt 0.536925 1.953759
vt 0.822879 1.000000
vt 0.656213 1.000000
vt 0.536925 1.953759
vt 0.703592 1.953759
vt 0.536925 1.909884
vt 0.703592 1.909884
vt 0.703592 1.909884
vt 1.633217 1.853460
vt 0.536925 1.909884
vt 0.656213 0.833333
vt 0.370259 1.953759
vt 0.656213 1.000000
vt 0.489546 1.000000
vt 0.370259 1.953759
vt 0.370259 1.909884
vt 0.536925 1.909884
vt 1.493120 1.853460
vt 0.370259 1.909884
vt 0.489546 0.833333
vt 0.203592 1.953759
vt 0.489546 1.000000
vt 0.322879 1.000000
vt 0.203592 1.953759
vt 0.203592 1.909884
vt 0.370259 1.909884
vt 1.353023 1.853460
vt 0.203592 1.909884
vt 0.322879 0.833333
vt 0.036925 1.953759
vt 0.322879 1.000000
vt 0.156213 1.000000
vt 0.036925 1.909884
vt 0.203592 1.909884
vt 1.212927 1.853460
vt 0.536925 1.875706
vt 0.822879 0.166667
vt 0.536925 1.875706
vt 1.633217 1.293073
vt 0.536925 1.875706
vt 1.773313 1.293073
vt 0.536925 1.836464
vt 0.703592 1.836464
vt 0.822879 0.000000
vt 0.656213 0.000000
vt 0.536925 1.836464
vt 0.370259 1.875706
vt 0.656213 0.166667
vt 0.370259 1.875706
vt 1.493120 1.293073
vt 0.370259 1.875706
vt 0.370259 1.836464
vt 0.536925 1.836464
vt 0.489546 0.000000
vt 0.370259 1.836464
vt 0.203592 1.875706
vt 0.489546 0.166667
vt 0.203592 1.875706
vt 1.353023 1.293073
vt 0.203592 1.875706
vt 0.203592 1.836464
vt 0.370259 1.836464
vt 0.322879 0.000000
vt 0.203592 1.836464
vt 0.036925 1.875706
vt 0.322879 0.166667
vt 0.036925 1.875706
vt 0.036925 1.836464
vt 0.203592 1.836464
vt 0.036925 1.836464
vt 1.773313 1.853460
vt 1.773313 1.853460
vt 1.633217 1.853460
vt 1.493120 1.853460
vt 1.353023 1.853460
vt 1.212927 1.853460
vt 0.156213 0.833333
vt 1.072830 1.853460
vt 1.913410 1.713363
vt 1.773313 1.713363
vt 1.773313 1.713363
vt 1.773313 1.713363
vt 1.633217 1.713363
vt 1.633217 1.713363
vt 1.633217 1.713363
vt 1.493120 1.713363
vt 1.493120 1.713363
vt 1.493120 1.713363
vt 1.353023 1.713363
vt 1.353023 1.713363
vt 1.353023 1.713363
vt 1.212927 1.713363
vt 1.212927 1.713363
vt 1.212927 1.713363
vt 1.072830 1.713363
vt 1.913410 1.573267
vt 1.773313 1.573267
vt 1.773313 1.573267
vt 1.773313 1.573267
vt 1.633217 1.573267
vt 1.633217 1.573267
vt 1.633217 1.573267
vt 1.493120 1.573267
vt 1.493120 1.573267
vt 1.493120 1.573267
vt 1.353023 1.573267
vt 1.353023 1.573267
vt 1.353023 1.573267
vt 1.212927 1.573267
vt 1.212927 1.573267
vt 1.212927 1.573267
vt 1.072830 1.573267
vt 1.913410 1.433170
vt 1.773313 1.433170
vt 1.773313 1.433170
vt 1.773313 1.433170
vt 1.633217 1.433170
vt 1.633217 1.433170
vt 1.633217 1.433170
vt 1.493120 1.433170
vt 1.493120 1.433170
vt 1.493120 1.433170
vt 1.353023 1.433170
vt 1.353023 1.433170
vt 1.353023 1.433170
vt 1.212927 1.433170
vt 1.212927 1.433170
vt 1.212927 1.433170
vt 1.072830 1.433170
vt 1.913410 1.293073
vt 1.773313 1.293073
vt 0.822879 0.166667
vt 1.633217 1.293073
vt 1.493120 1.293073
vt 1.353023 1.293073
vt 1.212927 1.293073
vt 1.212927 1.293073
vt 0.656213 0.833333
vt 1.506463 1.000000
vt 1.673130 1.000000
vt 1.673130 0.833333
vt 0.489546 0.833333
vt 1.339796 1.000000
vt 1.506463 1.000000
vt 1.506463 0.833333
vt 0.322879 0.833333
vt 1.173130 1.000000
vt 1.339796 1.000000
vt 1.339796 0.833333
vt 0.156213 0.833333
vt 1.006463 1.000000
vt 1.173130 1.000000
vt 1.173130 0.833333
vt 0.656213 0.000000
vt 1.506463 0.804354
vt 1.673130 0.804354
vt 1.673130 0.637688
vt 0.489546 0.000000
vt 1.339796 0.804354
vt 1.506463 0.804354
vt 1.506463 0.637688
vt 0.322879 0.000000
vt 1.173130 0.804354
vt 1.339796 0.804354
vt 1.339796 0.637688
vt 0.156213 0.000000
vt 1.006463 0.804354
vt 1.173130 0.804354
vt 1.173130 0.637688
vn 0.000000 1.000000 0.000000
vn 0.000000 1.000000 0.000000
vn 0.000000 1.000000 0.000000
vn 0.000000 1.000000 0.000000
vn 0.000000 1.000000 0.000000
vn 0.000000 1.000000 0.000000
vn 0.000000 1.000000 0.000000
vn 0.000000 1.000000 0.000000
vn 0.000000 1.000000 0.000000
vn 0.000000 1.000000 0.000000
vn 0.000000 1.000000 0.000000
vn 0.000000 1.000000 0.000000
vn 0.000000 1.000000 0.000000
vn 0.000000 1.000000 0.000000
vn 0.000000 1.000000 0.000000
vn 0.000000 1.000000 0.000000
vn 0.000000 1.000000 0.000000
vn 0.000000 1.000000 0.000000
vn 0.000000 1.000000 0.000000
vn 0.000000 1.000000 0.000000
vn 0.000000 1.000000 0.000000
vn 0.000000 1.000000 0.000000
vn 0.000000 1.000000 0.000000
vn 0.000000 1.000000 0.000000
vn 0.000000 1.000000 0.000000
vn 0.000000 1.000000 0.000000
vn 0.000000 1.000000 0.000000
vn 0.000000 1.000000 0.000000
vn 0.000000 1.000000 0.000000
vn 0.000000 1.000000 0.000000
vn 0.000000 1.000000 0.000000
vn 0.000000 1.000000 0.000000
vn 0.000000 1.000000 0.000000
vn 0.000000 1.000000 0.000000
vn 0.000000 1.000000 0.000000
vn 0.000000 1.000000 0.000000
vn 0.000000 1.000000 0.000000
vn 0.000000 1.000000 0.000000
vn 0.000000 1.000000 0.000000
vn 0.000000 1.000000 0.000000
vn 0.000000 1.000000 0.000000
vn 0.000000 1.000000 0.000000
vn 0.000000 1.000000 0.000000
vn 0.000000 1.000000 0.000000
vn 0.000000 1.000000 0.000000
vn 0.000000 1.000000 0.000000
vn 0.000000 1.000000 0.000000
vn 0.000000 1.000000 0.000000
vn 0.000000 1.000000 0.000000
vn 0.000000 1.000000 0.000000
vn 0.000000 1.000000 0.000000
vn 0.000000 1.000000 0.000000
vn 0.000000 1.000000 0.000000
vn 0.000000 1.000000 0.000000
vn 0.000000 1.000000 0.000000
vn 0.000000 1.000000 0.000000
vn 0.000000 1.000000 0.000000
vn 0.000000 1.000000 0.000000
vn 0.000000 1.000000 0.000000
vn 0.000000 1.000000 0.000000
vn 0.000000 1.000000 0.000000
vn 0.000000 1.000000 0.000000
vn 0.000000 1.000000 0.000000
vn 0.000000 1.000000 0.000000
vn 0.000000 1.000000 0.000000
vn 0.000000 1.000000 0.000000
vn 0.000000 1.000000 0.000000
vn 0.000000 0.000000 1.000000
vn 0.000000 0.000000 1.000000
vn 0.000000 0.000000 1.000000
vn 0.000000 0.000000 1.000000
vn 1.000000 0.000000 0.000000
vn 1.000000 0.000000 0.000000
vn 1.000000 0.000000 0.000000
vn 1.000000 0.000000 0.000000
vn 0.000000 0.000000 -1.000000
vn 0.000000 0.000000 -1.000000
vn 0.000000 0.000000 -1.000000
vn 0.000000 0.000000 -1.000000
vn -1.000000 0.000000 0.000000
vn -1.000000 0.000000 0.000000
vn -1.000000 0.000000 0.000000
vn -1.000000 0.000000 0.000000
vn 0.000000 0.000000 1.000000
vn 0.000000 0.000000 1.000000
vn 0.000000 0.000000 1.000000
vn 0.000000 0.000000 1.000000
vn 1.000000 0.000000 0.000000
vn 1.000000 0.000000 0.000000
vn 1.000000 0.000000 0.000000
vn 1.000000 0.000000 0.000000
vn 0.000000 0.000000 -1.000000
vn 0.000000 0.000000 -1.000000
vn 0.000000 0.000000 -1.000000
vn 0.000000 0.000000 -1.000000
vn -1.000000 0.000000 0.000000
vn -1.000000 0.000000 0.000000
vn -1.000000 0.000000 0.000000
vn -1.000000 0.000000 0.000000
vn 0.000000 0.000000 1.000000
vn 0.000000 0.000000 1.000000
vn 0.000000 0.000000 1.000000
vn 0.000000 0.000000 1.000000
vn 1.000000 0.000000 0.000000
vn 1.000000 0.000000 0.000000
vn 1.000000 0.000000 0.000000
vn 1.000000 0.000000 0.000000
vn 0.000000 0.000000 -1.000000
vn 0.000000 0.000000 -1.000000
vn 0.000000 0.000000 -1.000000
vn 0.000000 0.000000 -1.000000
vn -1.000000 0.000000 0.000000
vn -1.000000 0.000000 0.000000
vn -1.000000 0.000000 0.000000
vn -1.000000 0.000000 0.000000
vn 0.000000 0.000000 1.000000
vn 0.000000 0.000000 1.000000
vn 0.000000 0.000000 1.000000
vn 0.000000 0.000000 1.000000
vn 1.000000 0.000000 0.000000
vn 1.000000 0.000000 0.000000
vn 1.000000 0.000000 0.000000
vn 1.000000 0.000000 0.000000
vn 0.000000 0.000000 -1.000000
vn 0.000000 0.000000 -1.000000
vn 0.000000 0.000000 -1.000000
vn 0.000000 0.000000 -1.000000
vn -1.000000 0.000000 0.000000
vn -1.000000 0.000000 0.000000
vn -1.000000 0.000000 0.000000
vn -1.000000 0.000000 0.000000
vn 0.000000 0.000000 1.000000
vn 0.000000 0.000000 1.000000
vn 0.000000 0.000000 1.000000
vn 0.000000 0.000000 1.000000
vn 1.000000 0.000000 0.000000
vn 1.000000 0.000000 0.000000
vn 1.000000 0.000000 0.000000
vn 1.000000 0.000000 0.000000
vn 0.000000 0.000000 -1.000000
vn 0.000000 0.000000 -1.000000
vn 0.000000 0.000000 -1.000000
vn 0.000000 0.000000 -1.000000
vn -1.000000 0.000000 0.000000
vn -1.000000 0.000000 0.000000
vn -1.000000 0.000000 0.000000
vn -1.000000 0.000000 0.000000
vn 0.000000 0.000000 1.000000
vn 0.000000 0.000000 1.000000
vn 0.000000 0.000000 1.000000
vn 0.000000 0.000000 1.000000
vn 1.000000 0.000000 0.000000
vn 1.000000 0.000000 0.000000
vn 1.000000 0.000000 0.000000
vn 1.000000 0.000000 0.000000
vn 0.000000 0.000000 -1.000000
vn 0.000000 0.000000 -1.000000
vn 0.000000 0.000000 -1.000000
vn 0.000000 0.000000 -1.000000
vn -1.000000 0.000000 0.000000
vn -1.000000 0.000000 0.000000
vn -1.000000 0.000000 0.000000
vn -1.000000 0.000000 0.000000
vn 0.000000 0.000000 1.000000
vn 0.000000 0.000000 1.000000
vn 0.000000 0.000000 1.000000
vn 0.000000 0.000000 1.000000
vn 1.000000 0.000000 0.000000
vn 1.000000 0.000000 0.000000
vn 1.000000 0.000000 0.000000
vn 1.000000 0.000000 0.000000
vn 0.000000 0.000000 -1.000000
vn 0.000000 0.000000 -1.000000
vn 0.000000 0.000000 -1.000000
vn 0.000000 0.000000 -1.000000
vn -1.000000 0.000000 0.000000
vn -1.000000 0.000000 0.000000
vn -1.000000 0.000000 0.000000
vn -1.000000 0.000000 0.000000
vn 0.000000 0.000000 1.000000
vn 0.000000 0.000000 1.000000
vn 0.000000 0.000000 1.000000
vn 0.000000 0.000000 1.000000
vn 1.000000 0.000000 0.000000
vn 1.000000 0.000000 0.000000
vn 1.000000 0.000000 0.000000
vn 1.000000 0.000000 0.000000
vn 0.000000 0.000000 -1.000000
vn 0.000000 0.000000 -1.000000
vn 0.000000 0.000000 -1.000000
vn 0.000000 0.000000 -1.000000
vn -1.000000 0.000000 0.000000
vn -1.000000 0.000000 0.000000
vn -1.000000 0.000000 0.000000
vn -1.000000 0.000000 0.000000
s off
g pPlane1
usemtl initialShadingGroup
f 46/44/1 47/244/2 48/243/3 49/242/4
f 50/48/5 51/240/6 52/239/7 53/238/8
f 54/52/9 55/236/10 56/235/11 57/234/12
f 58/56/13 59/232/14 60/231/15 61/230/16
s 1
f 6/6/17 7/211/18 14/202/19 13/204/20
f 7/212/18 8/134/21 15/199/22 14/201/19
f 8/210/21 9/125/23 16/196/24 15/198/22
f 9/209/23 10/114/25 17/193/26 16/195/24
f 10/208/25 11/116/27 18/190/28 17/192/26
f 11/206/27 12/205/29 19/18/30 18/189/28
f 13/12/20 14/203/19 21/185/31 20/187/32
f 14/13/19 15/200/22 22/182/33 21/184/31
f 15/14/22 16/197/24 23/179/34 22/181/33
f 16/15/24 17/194/26 24/176/35 23/178/34
f 17/16/26 18/191/28 25/173/36 24/175/35
f 18/17/28 19/188/30 26/25/37 25/172/36
f 20/19/32 21/186/31 28/168/38 27/170/39
f 21/20/31 22/183/33 29/165/40 28/167/38
f 22/21/33 23/180/34 30/162/41 29/164/40
f 23/22/34 24/177/35 31/159/42 30/161/41
f 24/23/35 25/174/36 32/156/43 31/158/42
f 25/24/36 26/171/37 33/32/44 32/155/43
f 27/26/39 28/169/38 35/151/45 34/153/46
f 28/27/38 29/166/40 36/150/47 35/110/45
f 29/28/40 30/163/41 37/149/48 36/102/47
f 30/29/41 31/160/42 38/148/49 37/93/48
f 31/30/42 32/157/43 39/147/50 38/84/49
f 32/31/43 33/154/44 40/38/51 39/146/50
s off
f 62/60/52 63/228/53 64/227/54 65/226/55
f 66/64/56 67/224/57 68/223/58 69/222/59
f 70/68/60 71/220/61 72/219/62 73/218/63
f 74/72/64 75/216/65 76/215/66 77/214/67
f 1/145/68 2/2/69 47/144/70 46/143/71
f 2/138/72 8/8/73 48/141/74 47/45/75
f 8/133/76 7/142/77 49/140/78 48/46/79
f 7/7/80 1/1/81 46/241/82 49/47/83
f 2/139/84 3/3/85 51/137/86 50/136/87
f 3/129/88 9/9/89 52/132/90 51/49/91
f 9/124/92 8/135/93 53/131/94 52/50/95
f 8/8/96 2/138/97 50/237/98 53/51/99
f 3/130/100 4/4/101 55/128/102 54/127/103
f 4/120/104 10/10/105 56/123/106 55/53/107
f 10/113/108 9/126/109 57/122/110 56/54/111
f 9/9/112 3/129/113 54/233/114 57/55/115
f 4/121/116 5/5/117 59/118/118 58/117/119
f 5/119/120 11/207/121 60/112/122 59/57/123
f 11/11/124 10/115/125 61/111/126 60/58/127
f 10/10/128 4/120/129 58/229/130 61/59/131
f 35/33/132 36/103/133 63/109/134 62/108/135
f 36/104/136 42/98/137 64/106/138 63/61/139
f 42/99/140 41/39/141 65/105/142 64/62/143
f 41/107/144 35/152/145 62/225/146 65/63/147
f 36/34/148 37/94/149 67/101/150 66/100/151
f 37/95/152 43/89/153 68/97/154 67/65/155
f 43/90/156 42/40/157 69/96/158 68/66/159
f 42/98/160 36/104/161 66/221/162 69/67/163
f 37/35/164 38/85/165 71/92/166 70/91/167
f 38/86/168 44/78/169 72/88/170 71/69/171
f 44/79/172 43/41/173 73/87/174 72/70/175
f 43/89/176 37/95/177 70/217/178 73/71/179
f 38/36/180 39/83/181 75/82/182 74/81/183
f 39/37/184 45/43/185 76/77/186 75/73/187
f 45/80/188 44/42/189 77/76/190 76/74/191
f 44/78/192 38/86/193 74/213/194 77/75/195
